<?xml version="1.0" standalone="no"?>
<!DOCTYPE svg PUBLIC "-//W3C//DTD SVG 20010904//EN"
 "http://www.w3.org/TR/2001/REC-SVG-20010904/DTD/svg10.dtd">
<svg version="1.0" xmlns="http://www.w3.org/2000/svg"
 width="700.000000pt" height="700.000000pt" viewBox="0 0 700.000000 700.000000"
 preserveAspectRatio="xMidYMid meet">
<metadata>
Created by potrace 1.14, written by Peter Selinger 2001-2017
</metadata>
<g transform="translate(0.000000,700.000000) scale(0.100000,-0.100000)"
fill="#000000" stroke="none">
<path d="M1960 6990 c0 -5 -12 -13 -27 -16 -17 -4 -90 -69 -190 -167 -155
-152 -163 -159 -195 -154 -42 7 -84 17 -233 57 -294 77 -394 100 -446 100 -64
0 -162 -28 -229 -67 -51 -29 -549 -518 -586 -575 -13 -20 -26 -48 -30 -62 -3
-14 -10 -26 -15 -26 -5 0 -9 -43 -9 -95 0 -57 4 -95 10 -95 6 0 10 -6 10 -13
0 -18 38 -88 64 -115 15 -17 1050 -717 1193 -807 9 -5 62 -40 117 -78 56 -37
386 -258 733 -490 372 -248 633 -428 633 -437 0 -8 -32 -53 -71 -100 -39 -47
-88 -105 -108 -129 -20 -24 -41 -49 -46 -55 -6 -6 -64 -76 -130 -156 -66 -80
-122 -147 -126 -150 -3 -3 -28 -32 -55 -66 -27 -33 -112 -136 -189 -228 -77
-92 -144 -178 -149 -192 -23 -69 26 -134 102 -134 51 0 71 19 238 225 26 33
98 119 159 191 60 72 125 148 142 170 18 22 46 56 62 75 15 19 70 84 121 144
50 61 99 119 108 130 10 11 118 142 242 290 123 149 227 272 230 275 3 3 59
70 125 150 65 80 121 147 124 150 4 3 39 46 80 95 84 102 234 254 332 335 77
65 259 220 344 295 33 29 126 108 206 176 80 68 207 178 283 244 77 66 155
134 175 150 50 41 315 268 321 275 3 3 32 28 65 55 33 28 71 61 85 74 62 57
171 130 235 156 62 26 85 30 198 33 98 3 140 0 180 -12 209 -65 369 -235 413
-438 23 -106 15 -249 -18 -328 -22 -54 -69 -141 -87 -162 -11 -13 -113 -133
-226 -268 -256 -303 -277 -327 -356 -419 -35 -40 -76 -89 -91 -109 -15 -19
-42 -51 -61 -71 -18 -20 -66 -76 -107 -126 -41 -49 -77 -92 -80 -95 -3 -3 -28
-32 -55 -65 -28 -33 -56 -66 -63 -73 -6 -8 -96 -113 -200 -235 -233 -277 -289
-332 -537 -537 -110 -90 -205 -169 -211 -175 -7 -5 -56 -46 -109 -90 -54 -44
-141 -116 -194 -160 -53 -44 -188 -157 -301 -250 -113 -93 -210 -174 -216
-180 -7 -5 -56 -46 -109 -90 -54 -44 -130 -107 -170 -140 -39 -33 -91 -76
-115 -95 -24 -19 -48 -40 -54 -45 -13 -12 -265 -220 -351 -290 -33 -26 -82
-67 -110 -91 -27 -24 -133 -111 -235 -195 -102 -83 -210 -173 -240 -199 -30
-26 -138 -116 -240 -199 -102 -84 -205 -169 -229 -189 -100 -84 -165 -116
-251 -126 -66 -8 -163 7 -197 30 l-25 16 266 267 c271 272 272 273 266 341 -3
40 -18 59 -57 75 -28 12 -44 13 -67 5 -20 -6 -125 -104 -291 -270 -143 -143
-267 -260 -275 -260 -25 0 -50 88 -50 179 0 132 21 173 194 381 44 52 96 115
117 140 132 159 226 272 263 315 82 95 171 207 183 228 17 29 16 62 -2 97 -19
37 -43 50 -94 50 -49 0 -68 -18 -221 -205 -58 -71 -126 -150 -151 -176 -45
-48 -45 -48 -85 -37 -24 8 -123 12 -264 13 -240 0 -409 -19 -497 -56 -106 -45
-176 -154 -176 -274 1 -121 12 -137 302 -430 142 -143 262 -271 266 -285 4
-14 19 -42 32 -63 29 -46 27 -50 -62 -137 -37 -36 -73 -77 -81 -92 -38 -73 7
-148 91 -148 44 0 49 3 134 85 48 47 95 85 103 85 8 0 42 -14 74 -31 45 -24
118 -90 309 -279 283 -282 295 -290 421 -290 88 0 158 28 218 86 52 51 71 95
89 214 41 263 45 360 22 545 -8 65 -12 126 -9 135 3 8 64 63 137 122 133 109
151 124 283 233 39 33 116 96 169 140 54 44 128 105 164 136 36 30 275 228
531 439 256 212 473 392 484 401 10 10 24 15 32 12 11 -4 930 -1368 1154
-1713 25 -38 170 -256 323 -484 290 -433 314 -462 399 -488 21 -6 38 -15 38
-20 0 -4 41 -8 90 -8 50 0 90 4 90 9 0 5 12 12 27 15 14 4 45 20 67 36 65 45
540 530 570 582 35 60 66 170 66 231 0 45 -30 176 -100 442 -40 149 -50 191
-57 233 -5 32 2 40 154 195 98 100 163 173 167 189 3 16 11 28 16 28 12 0 14
157 3 162 -5 2 -17 20 -27 40 -10 21 -76 93 -145 161 -101 100 -136 127 -175
140 -62 21 -111 21 -167 2 -42 -15 -45 -15 -61 6 -10 12 -18 29 -18 38 0 10
-6 37 -14 62 -7 24 -21 78 -31 119 -9 41 -21 89 -26 105 -10 36 -31 116 -54
205 -9 36 -21 79 -26 96 -5 17 -9 39 -9 50 0 12 60 78 151 169 167 166 190
196 209 273 16 61 3 132 -35 192 -36 55 -248 257 -291 276 -54 23 -159 24
-206 1 -20 -9 -43 -15 -51 -11 -13 4 -28 51 -57 174 -5 19 -23 89 -40 155 -53
206 -53 205 -28 240 12 16 32 41 44 55 106 123 292 343 337 398 21 26 51 61
65 77 15 17 50 57 77 90 28 33 53 62 56 65 17 14 104 141 124 180 12 25 36 81
51 125 28 76 29 88 29 256 l0 176 30 39 c16 21 32 41 35 44 10 8 131 167 177
232 24 33 48 77 54 99 7 21 16 39 21 39 11 0 10 166 -1 188 -6 9 -20 39 -33
66 -82 176 -293 259 -473 188 -36 -15 -123 -67 -135 -82 -3 -3 -41 -34 -85
-68 -44 -33 -105 -80 -135 -103 -53 -42 -55 -43 -120 -38 -306 20 -490 -40
-706 -231 -58 -52 -244 -212 -419 -360 -66 -56 -136 -117 -155 -134 -71 -65
-83 -70 -137 -53 -26 8 -59 18 -73 20 -14 3 -79 20 -145 37 -66 18 -136 36
-155 40 -88 20 -155 41 -168 54 -12 12 -11 19 4 52 24 49 23 153 -1 208 -19
44 -233 269 -280 294 -39 21 -104 42 -133 42 -13 0 -49 -7 -80 -16 -53 -15
-70 -29 -228 -185 -172 -171 -185 -180 -236 -160 -21 8 -75 22 -158 42 -19 4
-60 15 -90 23 -30 8 -127 33 -215 55 -87 23 -165 47 -172 54 -11 11 -11 21 2
56 19 56 19 106 -2 167 -13 39 -40 74 -140 175 -68 69 -140 135 -161 145 -20
10 -38 22 -40 27 -5 11 -162 9 -162 -3z m207 -312 c57 -57 103 -110 103 -118
0 -9 -15 -31 -34 -49 l-34 -33 -58 17 c-33 9 -75 21 -94 25 -19 5 -57 15 -85
23 -27 8 -67 18 -87 21 -26 5 -38 12 -38 24 0 9 39 56 87 104 64 64 94 88 113
88 18 0 52 -27 127 -102z m4508 56 c72 -30 105 -78 105 -155 0 -49 -5 -63 -41
-115 -23 -32 -45 -61 -48 -64 -4 -3 -28 -33 -54 -67 -26 -34 -51 -64 -56 -67
-4 -3 -23 16 -41 42 -40 56 -175 189 -201 197 -16 5 -37 42 -27 49 1 1 40 32
86 67 169 130 203 144 277 113z m-5698 -155 c15 -6 46 -14 68 -19 22 -4 94
-22 160 -40 66 -18 136 -36 155 -40 19 -4 89 -22 155 -40 66 -17 133 -35 149
-39 16 -3 31 -12 34 -19 2 -6 -33 -50 -77 -96 -66 -69 -81 -90 -81 -116 0 -48
25 -87 65 -100 64 -21 89 -7 224 126 69 68 132 124 138 124 11 0 299 -71 403
-100 86 -23 221 -58 310 -80 42 -11 127 -33 190 -51 25 -6 61 -15 80 -20 40
-9 250 -63 294 -76 16 -5 31 -14 34 -21 2 -6 -33 -50 -77 -96 -73 -77 -81 -88
-81 -124 0 -70 57 -113 129 -97 18 4 72 50 154 130 83 83 133 125 147 125 12
0 65 -12 118 -26 54 -15 113 -30 132 -34 19 -5 89 -22 155 -40 66 -17 136 -35
155 -39 19 -5 55 -14 80 -20 25 -7 70 -19 100 -27 111 -30 141 -40 143 -50 1
-8 -218 -203 -372 -332 -343 -285 -480 -420 -691 -675 -80 -97 -152 -176 -160
-176 -8 0 -27 8 -42 17 -28 18 -349 218 -418 262 -22 14 -160 99 -306 190
-146 91 -276 172 -289 180 -13 8 -121 76 -240 150 -119 74 -227 142 -240 150
-13 8 -132 83 -265 165 -133 83 -253 157 -265 165 -48 31 -457 285 -478 298
-12 7 -34 21 -48 30 -15 9 -66 41 -113 70 -47 29 -86 59 -86 65 0 17 309 322
345 341 35 18 169 22 212 5z m2779 -281 c120 -118 126 -133 67 -190 l-38 -36
-75 20 c-41 10 -122 31 -180 46 -71 18 -106 32 -108 42 -3 17 198 220 218 220
7 0 59 -46 116 -102z m-3265 -370 c127 -79 241 -150 254 -158 14 -8 133 -82
265 -165 132 -82 251 -157 265 -165 13 -8 142 -89 287 -179 144 -90 351 -219
458 -287 107 -68 204 -128 215 -134 29 -16 57 -32 90 -55 17 -11 39 -25 50
-32 76 -45 332 -205 390 -243 39 -25 77 -49 85 -53 8 -4 27 -15 41 -25 15 -9
58 -36 97 -60 39 -24 72 -49 75 -56 6 -16 -139 -186 -159 -186 -8 0 -38 17
-67 38 -29 21 -92 64 -142 96 -49 33 -117 77 -150 99 -61 42 -183 123 -290
194 -710 470 -2001 1339 -2014 1355 -25 32 -32 69 -21 108 8 28 24 49 38 50 2
0 107 -64 233 -142z m5244 -1678 c15 -58 31 -121 36 -140 4 -19 22 -89 39
-155 18 -66 35 -136 40 -155 4 -19 19 -78 34 -132 14 -53 26 -105 26 -116 0
-12 -27 -48 -63 -84 -35 -35 -94 -96 -131 -136 -68 -73 -68 -74 -63 -120 6
-58 43 -92 99 -92 33 0 48 9 123 81 47 44 91 79 97 77 7 -3 16 -18 21 -34 13
-44 67 -254 76 -294 5 -19 14 -55 20 -80 18 -63 40 -148 51 -190 4 -19 14 -55
21 -80 6 -25 15 -61 20 -80 4 -19 16 -69 27 -110 69 -258 112 -435 110 -446
-2 -7 -58 -69 -125 -137 -68 -70 -125 -136 -129 -151 -12 -48 4 -95 39 -116
61 -38 87 -29 182 61 47 44 91 79 98 76 6 -2 15 -17 19 -33 4 -16 21 -83 38
-149 17 -66 35 -136 40 -155 4 -19 22 -89 40 -155 18 -66 36 -138 40 -160 5
-22 13 -53 19 -68 6 -16 11 -60 11 -98 0 -103 -23 -138 -197 -312 -171 -169
-146 -166 -229 -34 -27 43 -56 89 -64 102 -8 13 -58 92 -110 175 -52 84 -102
162 -110 175 -8 13 -58 92 -110 175 -52 84 -102 162 -110 175 -8 13 -75 119
-148 237 -74 117 -185 294 -247 393 -63 99 -120 190 -127 202 -47 80 -196 313
-215 339 -67 89 -193 53 -193 -55 0 -27 30 -83 110 -206 8 -13 68 -108 133
-212 65 -103 176 -280 247 -393 71 -113 135 -215 142 -227 11 -18 162 -260
218 -348 8 -13 58 -91 110 -174 52 -84 106 -169 120 -191 82 -129 247 -395
258 -416 17 -32 4 -50 -47 -65 -27 -8 -46 -7 -76 3 -38 12 -59 43 -511 718
-260 388 -492 735 -516 772 -23 37 -204 308 -400 602 -197 294 -358 539 -358
545 0 16 162 151 181 151 9 0 43 -44 83 -110 37 -60 77 -116 89 -125 12 -8 40
-15 63 -15 84 0 121 95 72 178 -13 21 -28 47 -35 57 -54 89 -93 159 -93 166 0
4 75 70 167 146 277 230 353 302 498 478 28 33 52 62 55 65 5 4 102 119 149
175 250 300 298 352 311 338 4 -4 19 -55 35 -113z m563 -493 c78 -80 100 -108
96 -124 -8 -31 -200 -217 -217 -210 -8 3 -24 47 -40 109 -14 56 -34 137 -45
178 l-20 75 36 38 c57 59 72 53 190 -66z m379 -1589 c76 -76 103 -109 103
-128 0 -18 -24 -49 -87 -112 -48 -49 -95 -88 -104 -88 -12 0 -22 23 -38 93
-24 96 -28 113 -56 211 l-17 58 33 34 c18 19 40 34 48 34 9 0 62 -46 118 -102z
m-5597 -223 c9 -11 5 -21 -24 -53 -118 -127 -220 -282 -236 -357 -3 -16 -12
-31 -21 -33 -8 -1 -81 64 -162 146 -140 142 -147 150 -147 189 0 47 20 69 76
85 121 34 491 51 514 23z m912 -1036 c-1 -78 -6 -183 -12 -233 -23 -181 -41
-216 -112 -216 -40 0 -47 5 -189 146 -91 91 -145 152 -142 160 3 8 17 17 32
20 73 18 168 76 276 170 68 59 136 106 143 100 2 -3 4 -69 4 -147z"/>
<path d="M5465 5966 c-83 -16 -121 -38 -135 -81 -16 -50 1 -98 46 -126 34 -21
35 -21 127 -4 110 21 148 16 213 -28 66 -45 84 -83 84 -182 0 -44 -5 -98 -10
-120 -18 -78 29 -145 102 -145 78 0 122 99 122 275 1 104 -1 114 -32 178 -91
190 -284 277 -517 233z"/>
</g>
</svg>
